<svg xmlns="http://www.w3.org/2000/svg" viewBox="0 0 64 64" width="512" height="512"><g id="Radar"><path d="M39.4,16.7l-1.71-.29.53-.23A11.142,11.142,0,0,1,39.4,16.7Z" style="fill:#bddbff"/><path d="M47.26,12.2l-4.29,1.89-4.75,2.09a11.142,11.142,0,0,1,1.18.52l6.77,1.13L47.3,24.6l.29,1.71.23-.53,2.09-4.75,1.89-4.29,3.56-8.1Z" style="fill:#bddbff"/><path d="M62,31H57.966a25.926,25.926,0,0,0-3.754-12.521l-1.707,1.042A23.93,23.93,0,0,1,55.966,31H53.952a21.846,21.846,0,0,0-1.6-7.381l-1.85.762A19.82,19.82,0,0,1,51.952,31h-2a18.145,18.145,0,0,0-.235-2.175l-1.969.35a16.325,16.325,0,0,1,.2,1.825H45.949A14,14,0,0,0,33,18.051V16.059a16.117,16.117,0,0,1,2.766.386l.468-1.944A18.109,18.109,0,0,0,33,14.029V12.048A19.831,19.831,0,0,1,39.619,13.5l.762-1.849A21.828,21.828,0,0,0,33,10.048V8.034A23.937,23.937,0,0,1,44.479,11.5l1.042-1.707A25.93,25.93,0,0,0,33,6.034V2H31V6.025A26.027,26.027,0,0,0,6.025,31H2v2H6.025A26.027,26.027,0,0,0,31,57.975V62h2V57.975A26.027,26.027,0,0,0,57.975,33H62ZM43.949,33A12.006,12.006,0,0,1,33,43.949v-2A10.015,10.015,0,0,0,41.949,33Zm-25.9,0A14,14,0,0,0,31,45.949v2A16,16,0,0,1,16.051,33Zm8.039,0A6.008,6.008,0,0,0,31,37.91v2.021A8.008,8.008,0,0,1,24.069,33ZM31,33v2.858A4,4,0,0,1,28.142,33Zm-2.858-2A4,4,0,0,1,31,28.142V31ZM33,33h2.858A4,4,0,0,1,33,35.858Zm0-2V28.142A4,4,0,0,1,35.858,31Zm-2-4.91A6.008,6.008,0,0,0,26.09,31H24.069A8.008,8.008,0,0,1,31,24.069ZM22.051,31h-2A12.006,12.006,0,0,1,31,20.051v2A10.015,10.015,0,0,0,22.051,31Zm0,2A10.015,10.015,0,0,0,31,41.949v2A12.006,12.006,0,0,1,20.051,33ZM33,45.949A14,14,0,0,0,45.949,33h2A16,16,0,0,1,33,47.949Zm0-6.018V37.91A6.008,6.008,0,0,0,37.91,33h2.021A8.008,8.008,0,0,1,33,39.931ZM37.91,31A6.008,6.008,0,0,0,33,26.09V24.069A8.008,8.008,0,0,1,39.931,31ZM18.051,31h-2A16,16,0,0,1,31,16.051v2A14,14,0,0,0,18.051,31Zm-4,0h-2A19.991,19.991,0,0,1,31,12.051v2A17.994,17.994,0,0,0,14.051,31Zm0,2A17.994,17.994,0,0,0,31,49.949v2A19.991,19.991,0,0,1,12.051,33ZM33,49.949A17.994,17.994,0,0,0,49.949,33h2A19.991,19.991,0,0,1,33,51.949ZM43.949,31h-2A10.015,10.015,0,0,0,33,22.051v-2A12.006,12.006,0,0,1,43.949,31ZM31,8.025v2A22.026,22.026,0,0,0,10.025,31h-2A24.027,24.027,0,0,1,31,8.025ZM8.025,33h2A22.026,22.026,0,0,0,31,53.975v2A24.027,24.027,0,0,1,8.025,33ZM33,55.975v-2A22.026,22.026,0,0,0,53.975,33h2A24.027,24.027,0,0,1,33,55.975Z" style="fill:#3d9ae2"/><path d="M36.694,16.539a1,1,0,0,0,.828.861L45.3,18.7l1.3,7.78a1,1,0,0,0,.862.828,1.031,1.031,0,0,0,.124.007,1,1,0,0,0,.915-.6L56.279,9.039a1,1,0,0,0-1.317-1.318L37.284,15.5A1,1,0,0,0,36.694,16.539Zm11.327,6.3-.778-4.67L52.3,13.113ZM50.889,11.7l-5.06,5.06-4.671-.779Z" style="fill:#3d9ae2"/></g></svg>