<?xml version="1.0" encoding="iso-8859-1"?>
<!-- Generator: Adobe Illustrator 19.0.0, SVG Export Plug-In . SVG Version: 6.00 Build 0)  -->
<svg version="1.1" id="Layer_1" xmlns="http://www.w3.org/2000/svg" xmlns:xlink="http://www.w3.org/1999/xlink" x="0px" y="0px"
	 viewBox="0 0 512 512" style="enable-background:new 0 0 512 512;" xml:space="preserve">
<g transform="translate(1 1)">
	<g>
		<g>
			<path d="M485.4,459.8h-93.867v-53.222c15.526-10.727,25.6-28.648,25.6-49.178c0-14.013-4.703-26.805-12.618-36.932
				c39.248-79.151,24.001-173.552-38.582-236.135c-3.413-3.413-8.533-3.413-11.947,0l-85.072,85.333h-83.269
				c0.709-2.73,1.088-5.589,1.088-8.533c0-18.773-15.36-34.133-34.133-34.133c-18.773,0-34.133,15.36-34.133,34.133
				c0,18.773,15.36,34.133,34.133,34.133c2.944,0,5.803-0.378,8.533-1.088v83.601l-84.48,84.74c-3.413,3.413-3.413,8.533,0,11.947
				C115.907,413.72,167.96,434.2,220.867,434.2c34.956,0,70.684-9.301,102.025-27.888c0.125,0.088,0.249,0.179,0.375,0.266V459.8
				h-179.2c-14.507,0-25.6,11.093-25.6,25.6v17.067c0,5.12,3.413,8.533,8.533,8.533h375.467c5.12,0,8.533-3.413,8.533-8.533V485.4
				C511,470.893,499.907,459.8,485.4,459.8z M381.083,393.069c-0.825,0.209-1.623,0.541-2.349,1.025
				c-12.8,7.68-29.867,7.68-42.667,0c-0.726-0.484-1.524-0.815-2.349-1.025c-10.934-7.191-18.224-19.304-18.928-33.416
				c-0.036-0.745-0.057-1.495-0.057-2.252c0-23.893,18.773-42.667,42.667-42.667c8.96,0,17.2,2.64,24,7.2
				c2.264,1.544,4.426,3.341,6.491,5.381c7.56,7.664,12.175,18.244,12.175,30.085C400.067,372.47,392.594,385.498,381.083,393.069z
				 M221.071,217.658l-30.924-30.924h61.754L221.071,217.658z M135.533,161.133c0-9.387,7.68-17.067,17.067-17.067
				c9.387,0,17.067,7.68,17.067,17.067c0,3.658-1.177,7.047-3.156,9.833c-0.83,0.52-1.533,1.188-2.1,1.978
				c-0.79,0.567-1.458,1.27-1.978,2.1c-2.786,1.979-6.176,3.156-9.833,3.156C143.213,178.2,135.533,170.52,135.533,161.133z
				 M178.2,198.68l30.943,30.943L178.2,260.661V198.68z M94.573,367.64L276.58,185.634c1.239-0.689,2.232-1.681,2.92-2.92
				l80.46-80.46c51.2,56.32,64,136.533,31.573,205.653c-8.437-5.625-18.033-8.926-27.833-9.917
				c-0.163-0.017-0.328-0.029-0.491-0.044c-0.757-0.07-1.515-0.127-2.274-0.17c-0.252-0.014-0.503-0.029-0.755-0.041
				c-0.926-0.041-1.853-0.069-2.78-0.069c-33.28,0-59.733,26.453-59.733,59.733c0,0.983,0.029,1.96,0.073,2.934
				c0.008,0.18,0.022,0.359,0.032,0.539c0.047,0.865,0.111,1.726,0.193,2.582c0.007,0.067,0.013,0.135,0.02,0.202
				c0.584,5.912,2.004,11.602,4.262,16.928c0.056,0.134,0.112,0.267,0.169,0.401c0.176,0.406,0.357,0.81,0.543,1.212
				c1.945,4.318,4.383,8.352,7.249,12.035C240.278,432.465,153.381,422.186,94.573,367.64z M340.333,414.698
				c3.944,1.152,8.064,1.909,12.317,2.235c0.282,0.023,0.564,0.044,0.846,0.063c0.433,0.027,0.867,0.054,1.303,0.073
				c1.733,0.077,3.469,0.077,5.202,0c0.436-0.018,0.869-0.045,1.303-0.073c0.282-0.019,0.564-0.04,0.846-0.063
				c4.253-0.326,8.373-1.083,12.317-2.235V459.8h-34.133V414.698z M493.933,493.933h-358.4V485.4c0-5.12,3.413-8.533,8.533-8.533
				H331.8H383h102.4c5.12,0,8.533,3.413,8.533,8.533V493.933z"/>
			<path d="M84.333,135.533c0,5.12,3.413,8.533,8.533,8.533c5.12,0,8.533-3.413,8.533-8.533c0-18.773,15.36-34.133,34.133-34.133
				c5.12,0,8.533-3.413,8.533-8.533c0-5.12-3.413-8.533-8.533-8.533C107.373,84.333,84.333,107.373,84.333,135.533z"/>
			<path d="M127,58.733c5.12,0,8.533-3.413,8.533-8.533s-3.413-8.533-8.533-8.533c-46.933,0-85.333,38.4-85.333,85.333
				c0,5.12,3.413,8.533,8.533,8.533s8.533-3.413,8.533-8.533C58.733,89.453,89.453,58.733,127,58.733z"/>
			<path d="M127,16.067c5.12,0,8.533-3.413,8.533-8.533S132.12-1,127-1C56.173-1-1,56.173-1,127c0,5.12,3.413,8.533,8.533,8.533
				s8.533-3.413,8.533-8.533C16.067,65.56,65.56,16.067,127,16.067z"/>
			<path d="M357.4,348.867c-5.12,0-8.533,3.413-8.533,8.533s3.413,8.533,8.533,8.533s8.533-3.413,8.533-8.533
				S362.52,348.867,357.4,348.867z"/>
		</g>
	</g>
</g>
<g>
</g>
<g>
</g>
<g>
</g>
<g>
</g>
<g>
</g>
<g>
</g>
<g>
</g>
<g>
</g>
<g>
</g>
<g>
</g>
<g>
</g>
<g>
</g>
<g>
</g>
<g>
</g>
<g>
</g>
</svg>
